#!OML:ASF H:\Terrain\Walking\May29\JustinRory\Justin.ASF
:FULLY-SPECIFIED
:DEGREES
1297
root 8.03083 17.1614 -16.6103 2.66271 -17.5995 1.11855
lowerback 18.3446 3.91916 4.02137
upperback 3.39833 5.84473 -0.412076
thorax -6.11499 2.75631 -4.04399
lowerneck -14.1492 -5.41732 -9.82595
upperneck 2.30487 -6.35137 11.9884
head 3.6996 -2.70401 4.81749
rclavicle 3.598e-014 -3.4191e-014
rhumerus -1.24901 -12.2898 -49.0879
rradius 90.4982
rwrist -24.4131
rhand -25.303 44.1657
rfingers 7.12502
rthumb 1.21896 14.1894
lclavicle 3.598e-014 -3.4191e-014
lhumerus -40.2636 15.5553 73.2166
lradius 106.474
lwrist 11.9935
lhand -15.793 31.1168
lfingers 7.12502
lthumb 10.3998 60.8396
rfemur -22.6191 2.01234 15.8378
rtibia 37.8038
rfoot -14.5219 -1.79849
rtoes 1.0058
lfemur -16.7598 12.2214 -19.1273
ltibia 37.4901
lfoot -19.358 8.80153
ltoes -14.7855
1298
root 8.06703 17.1972 -16.5781 2.22225 -18.2714 2.0972
lowerback 18.1006 4.16799 3.53904
upperback 3.27338 6.04197 -0.893516
thorax -6.09683 2.85927 -4.31503
lowerneck -14.2088 -5.37764 -9.40623
upperneck 2.24927 -6.34264 11.7356
head 3.66754 -2.70518 4.66913
rclavicle -5.1684e-015 2.70347e-014
rhumerus -0.776956 -12.181 -49.0906
rradius 89.8341
rwrist -24.6059
rhand -26.2025 45.0876
rfingers 7.12502
rthumb 0.350118 15.1082
lclavicle -5.1684e-015 2.70347e-014
lhumerus -41.5215 15.9328 73.1696
lradius 106.66
lwrist 12.5248
lhand -16.1064 30.7551
lfingers 7.12502
lthumb 10.0975 60.4928
rfemur -22.2295 2.5498 14.6027
rtibia 37.2478
rfoot -14.4114 -1.54627
rtoes 1.60275
lfemur -15.9227 12.0494 -20.26
ltibia 36.5561
lfoot -19.3952 9.0721
ltoes -12.4844
1299
root 8.10167 17.2226 -16.5404 1.79612 -19.0638 2.52066
lowerback 17.9811 4.43011 3.55099
upperback 3.18062 6.36787 -1.17789
thorax -6.06692 3.01736 -4.68688
lowerneck -14.3405 -5.38579 -9.6903
upperneck 2.40296 -6.3373 12.1549
head 3.76169 -2.67964 4.84621
rclavicle -4.13472e-014 7.95139e-016
rhumerus -0.327501 -12.1476 -48.9883
rradius 89.3346
rwrist -24.8021
rhand -26.1502 44.7699
rfingers 7.12502
rthumb 0.40065 14.7905
lclavicle -4.13472e-014 7.95139e-016
lhumerus -42.6013 16.3008 73.5744
lradius 106.768
lwrist 12.5591
lhand -16.374 30.8557
lfingers 7.12502
lthumb 9.83934 60.6058
rfemur -21.6497 3.25859 13.9928
rtibia 36.6588
rfoot -14.2637 -1.40555
rtoes 1.10553
lfemur -15.0136 12.1659 -20.757
ltibia 35.8287
lfoot -19.691 9.06778
ltoes -9.14758
1300
root 8.12324 17.2244 -16.5124 1.77618 -19.6447 1.95364
lowerback 17.7875 4.57882 4.44729
upperback 3.07899 6.72749 -1.20698
thorax -5.92795 3.18204 -5.27529
lowerneck -14.4597 -5.47008 -9.93102
upperneck 2.52576 -6.42975 12.4295
head 3.84778 -2.70919 4.96215
rclavicle 6.7388e-014 -8.74653e-015
rhumerus 0.210894 -12.3579 -49.0392
rradius 88.8389
rwrist -24.8418
rhand -25.1589 43.056
rfingers 7.12502
rthumb 1.35808 13.0806
lclavicle 6.7388e-014 -8.74653e-015
lhumerus -43.4005 16.6517 74.0327
lradius 106.658
lwrist 12.2857
lhand -16.3115 31.5987
lfingers 7.12502
lthumb 9.8996 61.346
rfemur -21.1315 4.0011 14.5205
rtibia 36.1165
rfoot -14.2127 -1.60433
rtoes -0.19554
lfemur -14.3525 12.4501 -20.2114
ltibia 35.2876
lfoot -19.6375 9.24576
ltoes -8.5998
1301
root 8.14278 17.2229 -16.4887 1.68697 -19.9439 1.88317
lowerback 17.4107 4.7098 4.81203
upperback 3.05163 6.9503 -1.27333
thorax -5.67626 3.29721 -5.5525
lowerneck -14.6734 -5.58605 -10.3132
upperneck 2.67225 -6.53289 12.7026
head 3.96222 -2.74218 5.09873
rclavicle 3.16068e-014 1.11319e-014
rhumerus 0.782215 -12.5744 -49.0077
rradius 88.373
rwrist -24.7249
rhand -25.1347 42.8683
rfingers 7.12502
rthumb 1.38151 12.8931
lclavicle 3.16068e-014 1.11319e-014
lhumerus -44.3255 17.0791 74.4318
lradius 106.676
lwrist 11.911
lhand -16.0977 30.2057
lfingers 7.12502
lthumb 10.1059 59.943
rfemur -20.7244 4.45158 14.5087
rtibia 35.7538
rfoot -14.2937 -1.74658
rtoes -0.808761
lfemur -13.8441 12.4876 -20.2138
ltibia 34.773
lfoot -19.6013 9.53727
ltoes -9.21913
1302
root 8.16559 17.2294 -16.4666 1.30239 -20.1179 2.72531
lowerback 17.0548 4.9008 4.30732
upperback 3.02557 7.08098 -1.55077
thorax -5.52231 3.37717 -5.55512
lowerneck -14.8086 -5.68303 -10.6757
upperneck 2.79734 -6.61828 12.9761
head 4.05581 -2.76893 5.23538
rclavicle -8.88567e-014 2.46493e-014
rhumerus 1.16174 -12.7145 -48.9008
rradius 88.1412
rwrist -24.5834
rhand -26.2314 43.6349
rfingers 7.12502
rthumb 0.322273 13.6554
lclavicle -8.88567e-014 2.46493e-014
lhumerus -45.6611 17.0623 74.781
lradius 107.116
lwrist 11.5776
lhand -16.5442 29.7119
lfingers 7.12502
lthumb 9.6751 59.4697
rfemur -20.4397 4.71737 13.4884
rtibia 35.5836
rfoot -14.4932 -1.70636
rtoes -1.12328
lfemur -13.3647 12.2144 -21.1982
ltibia 34.2502
lfoot -19.565 9.99835
ltoes -9.73204
1303
root 8.17972 17.2299 -16.4549 0.947012 -20.229 3.48513
lowerback 16.8909 5.0883 3.76826
upperback 2.92823 7.21436 -1.79647
thorax -5.55722 3.44861 -5.53177
lowerneck -14.6792 -5.76331 -10.658
upperneck 2.60706 -6.71658 12.8795
head 3.98401 -2.82843 5.19412
rclavicle 2.98177e-014 1.43125e-014
rhumerus 1.45382 -12.9668 -48.8555
rradius 88.0914
rwrist -24.4571
rhand -27.0564 43.5202
rfingers 7.12502
rthumb -0.474548 13.541
lclavicle 2.98177e-014 1.43125e-014
lhumerus -45.2518 17.7097 75.0798
lradius 106.407
lwrist 10.8086
lhand -16.2953 30.1166
lfingers 7.12502
lthumb 9.9153 59.8631
rfemur -20.3083 5.05867 12.6051
rtibia 35.561
rfoot -14.6744 -1.84463
rtoes -1.80022
lfemur -12.9471 11.9163 -22.0646
ltibia 33.7236
lfoot -19.086 10.5877
ltoes -11.6028
1304
root 8.18907 17.2288 -16.4505 0.843253 -20.3079 3.7421
lowerback 16.7429 5.2385 3.5636
upperback 2.77484 7.37278 -1.86083
thorax -5.64128 3.52445 -5.51139
lowerneck -14.5825 -5.79341 -10.7011
upperneck 2.30853 -6.73195 12.8814
head 3.88159 -2.84318 5.20261
rclavicle 3.00165e-014 -1.82882e-014
rhumerus 1.72125 -13.2922 -48.7889
rradius 88.1031
rwrist -24.329
rhand -26.8994 43.1442
rfingers 7.12502
rthumb -0.322929 13.1647
lclavicle 3.00165e-014 -1.82882e-014
lhumerus -45.3569 18.5038 75.382
lradius 105.722
lwrist 9.91601
lhand -15.9047 29.8087
lfingers 7.12502
lthumb 10.2921 59.5369
rfemur -20.3028 5.41414 12.278
rtibia 35.5974
rfoot -14.6364 -2.06917
rtoes -2.19814
lfemur -12.7088 11.7085 -22.3832
ltibia 33.2712
lfoot -18.6631 10.9021
ltoes -12.8042
1305
root 8.19559 17.2287 -16.4452 0.821694 -20.299 3.70032
lowerback 16.5842 5.3397 3.63624
upperback 2.59301 7.52036 -1.87229
thorax -5.72307 3.59025 -5.58645
lowerneck -14.5645 -5.80256 -10.9283
upperneck 2.13429 -6.71168 13.1646
head 3.84465 -2.82482 5.33332
rclavicle 4.21423e-014 -5.96354e-015
rhumerus 1.87837 -13.553 -48.8322
rradius 88.1474
rwrist -24.1968
rhand -26.1106 42.8595
rfingers 7.12502
rthumb 0.43896 12.8802
lclavicle 4.21423e-014 -5.96354e-015
lhumerus -45.9221 18.4056 75.6069
lradius 105.585
lwrist 9.44219
lhand -15.8291 29.5052
lfingers 7.12502
lthumb 10.365 59.2298
rfemur -20.2572 5.73237 12.2869
rtibia 35.6365
rfoot -14.5096 -2.40757
rtoes -3.18727
lfemur -12.5347 11.5803 -22.36
ltibia 33.0145
lfoot -18.5312 10.8851
ltoes -12.1083
1306
root 8.19989 17.2276 -16.4364 0.502834 -20.0741 3.76312
lowerback 16.6067 5.32573 3.69364
upperback 2.50362 7.51259 -1.92567
thorax -5.8171 3.58021 -5.68322
lowerneck -14.5425 -5.78551 -10.9359
upperneck 2.01594 -6.67756 13.1538
head 3.80104 -2.81051 5.33513
rclavicle -1.68967e-014 1.35174e-014
rhumerus 2.01919 -13.717 -49.0535
rradius 88.1968
rwrist -24.0452
rhand -25.7473 42.9069
rfingers 7.12502
rthumb 0.789764 12.9286
lclavicle -1.68967e-014 1.35174e-014
lhumerus -46.2823 18.0105 75.757
lradius 105.719
lwrist 9.16507
lhand -16.058 29.9493
lfingers 7.12502
lthumb 10.1442 59.6847
rfemur -19.8958 5.91697 12.2279
rtibia 35.6936
rfoot -14.5325 -2.84431
rtoes -4.31017
lfemur -12.1228 11.4665 -22.381
ltibia 32.9144
lfoot -18.5054 10.7553
ltoes -11.7039
1307
root 8.20203 17.222 -16.4339 0.158047 -19.6352 3.88619
lowerback 16.6471 5.22061 3.7038
upperback 2.44172 7.37472 -1.99856
thorax -5.91008 3.50757 -5.75058
lowerneck -14.4049 -5.73985 -10.6452
upperneck 1.79105 -6.6356 12.8258
head 3.6814 -2.80917 5.18953
rclavicle -5.36719e-015 -6.36111e-015
rhumerus 2.00621 -13.8067 -49.3009
rradius 88.4404
rwrist -23.9223
rhand -26.7165 43.6253
rfingers 7.12502
rthumb -0.146289 13.6456
lclavicle -5.36719e-015 -6.36111e-015
lhumerus -46.3861 17.9051 75.7317
lradius 105.629
lwrist 8.89529
lhand -15.8382 30.4944
lfingers 7.12502
lthumb 10.3563 60.2193
rfemur -19.5462 5.96464 12.1048
rtibia 35.8197
rfoot -14.7265 -3.2309
rtoes -3.81339
lfemur -11.7638 11.2935 -22.448
ltibia 32.8331
lfoot -18.4943 10.5545
ltoes -12.0553
1308
root 8.19485 17.2142 -16.4369 0.0060174 -19.1176 4.04229
lowerback 16.4694 5.18789 3.52753
upperback 2.33949 7.29617 -2.05548
thorax -5.94734 3.47027 -5.68629
lowerneck -14.1768 -5.75697 -10.3339
upperneck 1.53928 -6.69148 12.5468
head 3.55267 -2.85679 5.04924
rclavicle -2.14687e-014 -4.77083e-015
rhumerus 1.71866 -13.974 -49.4122
rradius 88.8558
rwrist -24.008
rhand -28.5557 45.0104
rfingers 7.12502
rthumb -1.92263 15.0393
lclavicle -2.14687e-014 -4.77083e-015
lhumerus -46.4367 17.5069 75.8657
lradius 105.342
lwrist 8.74577
lhand -17.7365 32.2688
lfingers 7.12502
lthumb 8.52459 62.0767
rfemur -19.4712 5.89643 11.9643
rtibia 36.0402
rfoot -14.8714 -3.5755
rtoes -2.64103
lfemur -11.6138 11.1384 -22.5533
ltibia 32.6701
lfoot -18.3999 10.2701
ltoes -12.5183
1309
root 8.18074 17.2104 -16.4376 -0.186626 -18.559 4.32663
lowerback 16.2127 5.19323 3.0855
upperback 2.30098 7.2207 -2.08321
thorax -5.90953 3.44427 -5.43067
lowerneck -14.4009 -5.86102 -10.0912
upperneck 1.67489 -6.84379 12.2551
head 3.62434 -2.93314 4.89878
rclavicle -1.88845e-015 2.38542e-015
rhumerus 1.3199 -14.2529 -49.4981
rradius 89.411
rwrist -24.0192
rhand -26.374 42.3724
rfingers 7.12502
rthumb 0.184488 12.3928
lclavicle -1.88845e-015 2.38542e-015
lhumerus -45.9023 17.4678 76.4245
lradius 104.706
lwrist 8.36586
lhand -17.8714 32.1164
lfingers 7.12502
lthumb 8.39445 61.9296
rfemur -19.3581 5.70035 11.7162
rtibia 36.2621
rfoot -14.9065 -3.90203
rtoes -2.13107
lfemur -11.4396 10.953 -22.7767
ltibia 32.5209
lfoot -18.5385 9.86392
ltoes -11.6456
1310
root 8.16385 17.2076 -16.4379 -0.498227 -17.8422 4.68867
lowerback 16.0413 5.13293 2.53962
upperback 2.34424 7.04479 -2.07669
thorax -5.85638 3.37233 -5.06682
lowerneck -14.7976 -5.99194 -10.2518
upperneck 1.87042 -6.97946 12.3528
head 3.77131 -2.98108 4.93553
rclavicle -1.00386e-013 1.39149e-014
rhumerus 1.01515 -14.5197 -49.6812
rradius 90.042
rwrist -23.7598
rhand -25.3306 41.5047
rfingers 7.12502
rthumb 1.19231 11.5283
lclavicle -1.00386e-013 1.39149e-014
lhumerus -45.1651 17.3461 76.8118
lradius 104.397
lwrist 8.26428
lhand -16.09 30.5442
lfingers 7.12502
lthumb 10.1133 60.2811
rfemur -19.0183 5.42344 11.3876
rtibia 36.4164
rfoot -15.1106 -4.28304
rtoes -2.84299
lfemur -11.1655 10.6199 -23.0636
ltibia 32.398
lfoot -18.7036 9.39741
ltoes -10.4426
1311
root 8.14114 17.2054 -16.4412 -0.663542 -16.995 4.50021
lowerback 16.0383 5.00438 2.49034
upperback 2.26605 6.87789 -1.94513
thorax -5.97744 3.28732 -4.87476
lowerneck -14.4099 -5.98509 -10.3283
upperneck 1.33616 -6.96445 12.6082
head 3.56236 -2.98213 5.03959
rclavicle 2.60408e-014 5.96354e-015
rhumerus 0.540496 -14.6601 -49.8779
rradius 90.6856
rwrist -23.4712
rhand -25.258 44.1607
rfingers 7.12502
rthumb 1.26238 14.1847
lclavicle 2.60408e-014 5.96354e-015
lhumerus -44.8233 16.3568 76.9372
lradius 104.434
lwrist 8.47808
lhand -16.3157 30.8199
lfingers 7.12502
lthumb 9.89555 60.5674
rfemur -18.5286 5.31466 11.6693
rtibia 36.4868
rfoot -15.3981 -4.86183
rtoes -3.21791
lfemur -10.8823 10.2946 -22.7359
ltibia 32.2336
lfoot -18.3809 8.90136
ltoes -11.0193
